<svg width="45" height="45" viewBox="0 0 97 96" fill="none" xmlns="http://www.w3.org/2000/svg">
<g clip-path="url(#clip0_8_18)">
<mask id="path-1-outside-1_8_18" maskUnits="userSpaceOnUse" x="31" y="39" width="65" height="51" fill="black">
<rect fill="white" x="31" y="39" width="65" height="51"/>
<path d="M50.5938 55.7188V49.6875C50.5938 48.0208 49.9167 47.1875 48.5625 47.1875C46.7083 47.1875 45.7812 48.4479 45.7812 50.9688C45.7812 52.3854 45.6146 53.3958 45.2812 54C44.9688 54.6042 44.2396 55.125 43.0938 55.5625C41.9688 55.9792 40.7604 56.1875 39.4688 56.1875C36.8229 56.1875 35.5 54.7708 35.5 51.9375C35.5 49.2708 36.6458 47.0938 38.9375 45.4062C41.25 43.7188 44.2604 42.875 47.9688 42.875C50.4062 42.875 52.5938 43.2083 54.5312 43.875C56.4896 44.5417 58.0521 45.6667 59.2188 47.25C60.3854 48.8333 60.9688 50.5729 60.9688 52.4688V81C61.0104 81.1458 61.3229 81.4583 61.9062 81.9375C62.3229 82.25 62.5312 82.7083 62.5312 83.3125C62.5312 84.1458 62.4167 84.7396 62.1875 85.0938C61.9583 85.4271 61.3958 85.7396 60.5 86.0312C59.625 86.3229 58.5208 86.4688 57.1875 86.4688C55.5625 86.4688 54.2083 86.1771 53.125 85.5938C52.0417 84.9896 51.1979 83.8229 50.5938 82.0938C48.7812 83.9688 47.3125 85.1667 46.1875 85.6875C45.0625 86.2083 43.9062 86.4688 42.7188 86.4688C40.0729 86.4688 38.0208 85.4375 36.5625 83.375C35.125 81.2917 34.4062 77.8958 34.4062 73.1875C34.4062 68.4792 35.0833 65.2188 36.4375 63.4062C37.7917 61.5729 40.4375 59.8854 44.375 58.3438C46.875 57.3854 48.9479 56.5104 50.5938 55.7188ZM50.5938 59.7812C48.2396 60.8229 46.8333 62 46.375 63.3125C45.9167 64.6042 45.6875 67.5312 45.6875 72.0938C45.6875 75.4479 45.875 77.5729 46.25 78.4688C46.625 79.3438 47.2708 79.7812 48.1875 79.7812C49.7917 79.7812 50.5938 78.4479 50.5938 75.7812V59.7812ZM79 42.875C82.9167 42.875 86.1875 44.6354 88.8125 48.1562C91.4375 51.6562 92.75 56.8646 92.75 63.7812C92.75 71.2396 91.4167 76.8854 88.75 80.7188C86.0833 84.5312 82.7604 86.4375 78.7812 86.4375C76.0312 86.4375 73.6458 85.5625 71.625 83.8125C69.6042 82.0625 68.0417 79.7292 66.9375 76.8125C65.8542 73.8958 65.3125 69.9062 65.3125 64.8438C65.3125 57.6146 66.5625 52.1458 69.0625 48.4375C71.5833 44.7292 74.8958 42.875 79 42.875ZM81.25 50.7188C81.25 48.1354 80.5 46.8438 79 46.8438C77.375 46.8438 76.5625 48.4271 76.5625 51.5938V77.5625C76.5625 80.7083 77.3021 82.2812 78.7812 82.2812C80.4271 82.2812 81.25 80.7083 81.25 77.5625V50.7188Z"/>
</mask>
<path d="M50.5938 55.7188V49.6875C50.5938 48.0208 49.9167 47.1875 48.5625 47.1875C46.7083 47.1875 45.7812 48.4479 45.7812 50.9688C45.7812 52.3854 45.6146 53.3958 45.2812 54C44.9688 54.6042 44.2396 55.125 43.0938 55.5625C41.9688 55.9792 40.7604 56.1875 39.4688 56.1875C36.8229 56.1875 35.5 54.7708 35.5 51.9375C35.5 49.2708 36.6458 47.0938 38.9375 45.4062C41.25 43.7188 44.2604 42.875 47.9688 42.875C50.4062 42.875 52.5938 43.2083 54.5312 43.875C56.4896 44.5417 58.0521 45.6667 59.2188 47.25C60.3854 48.8333 60.9688 50.5729 60.9688 52.4688V81C61.0104 81.1458 61.3229 81.4583 61.9062 81.9375C62.3229 82.25 62.5312 82.7083 62.5312 83.3125C62.5312 84.1458 62.4167 84.7396 62.1875 85.0938C61.9583 85.4271 61.3958 85.7396 60.5 86.0312C59.625 86.3229 58.5208 86.4688 57.1875 86.4688C55.5625 86.4688 54.2083 86.1771 53.125 85.5938C52.0417 84.9896 51.1979 83.8229 50.5938 82.0938C48.7812 83.9688 47.3125 85.1667 46.1875 85.6875C45.0625 86.2083 43.9062 86.4688 42.7188 86.4688C40.0729 86.4688 38.0208 85.4375 36.5625 83.375C35.125 81.2917 34.4062 77.8958 34.4062 73.1875C34.4062 68.4792 35.0833 65.2188 36.4375 63.4062C37.7917 61.5729 40.4375 59.8854 44.375 58.3438C46.875 57.3854 48.9479 56.5104 50.5938 55.7188ZM50.5938 59.7812C48.2396 60.8229 46.8333 62 46.375 63.3125C45.9167 64.6042 45.6875 67.5312 45.6875 72.0938C45.6875 75.4479 45.875 77.5729 46.25 78.4688C46.625 79.3438 47.2708 79.7812 48.1875 79.7812C49.7917 79.7812 50.5938 78.4479 50.5938 75.7812V59.7812ZM79 42.875C82.9167 42.875 86.1875 44.6354 88.8125 48.1562C91.4375 51.6562 92.75 56.8646 92.75 63.7812C92.75 71.2396 91.4167 76.8854 88.75 80.7188C86.0833 84.5312 82.7604 86.4375 78.7812 86.4375C76.0312 86.4375 73.6458 85.5625 71.625 83.8125C69.6042 82.0625 68.0417 79.7292 66.9375 76.8125C65.8542 73.8958 65.3125 69.9062 65.3125 64.8438C65.3125 57.6146 66.5625 52.1458 69.0625 48.4375C71.5833 44.7292 74.8958 42.875 79 42.875ZM81.25 50.7188C81.25 48.1354 80.5 46.8438 79 46.8438C77.375 46.8438 76.5625 48.4271 76.5625 51.5938V77.5625C76.5625 80.7083 77.3021 82.2812 78.7812 82.2812C80.4271 82.2812 81.25 80.7083 81.25 77.5625V50.7188Z" fill="white"/>
<path d="M50.5938 55.7188L51.8942 58.4223L53.5938 57.6047V55.7188H50.5938ZM45.2812 54L42.6545 52.5508L42.6351 52.586L42.6166 52.6217L45.2812 54ZM43.0938 55.5625L44.1357 58.3757L44.1498 58.3705L44.1639 58.3652L43.0938 55.5625ZM38.9375 45.4062L37.1691 42.9829L37.1587 42.9905L38.9375 45.4062ZM54.5312 43.875L53.5552 46.7118L53.5645 46.7149L54.5312 43.875ZM60.9688 81H57.9688V81.4202L58.0842 81.8242L60.9688 81ZM61.9062 81.9375L60.002 84.2557L60.0532 84.2977L60.1063 84.3375L61.9062 81.9375ZM62.1875 85.0938L64.6596 86.7933L64.6834 86.7587L64.7062 86.7235L62.1875 85.0938ZM60.5 86.0312L59.5712 83.1786L59.5613 83.1819L59.5513 83.1852L60.5 86.0312ZM53.125 85.5938L51.6638 88.2138L51.6832 88.2246L51.7027 88.2352L53.125 85.5938ZM50.5938 82.0938L53.4259 81.1042L51.8202 76.5086L48.4368 80.0087L50.5938 82.0938ZM36.5625 83.375L34.0933 85.0788L34.103 85.0929L34.113 85.107L36.5625 83.375ZM36.4375 63.4062L38.8408 65.2018L38.8457 65.1953L38.8506 65.1887L36.4375 63.4062ZM44.375 58.3438L43.3012 55.5425L43.2912 55.5463L43.2812 55.5502L44.375 58.3438ZM50.5938 59.7812H53.5938V55.1733L49.3798 57.0378L50.5938 59.7812ZM46.375 63.3125L49.2023 64.3157L49.2048 64.3086L49.2073 64.3015L46.375 63.3125ZM46.25 78.4688L43.4827 79.6272L43.4876 79.6389L43.4926 79.6505L46.25 78.4688ZM53.5938 55.7188V49.6875H47.5938V55.7188H53.5938ZM53.5938 49.6875C53.5938 48.5254 53.3702 47.0972 52.4143 45.9207C51.3616 44.6251 49.8857 44.1875 48.5625 44.1875V50.1875C48.5989 50.1875 48.4936 50.1936 48.3125 50.1193C48.113 50.0374 47.912 49.8944 47.7576 49.7043C47.6137 49.5272 47.574 49.3885 47.5711 49.378C47.57 49.3739 47.5938 49.4641 47.5938 49.6875H53.5938ZM48.5625 44.1875C46.8813 44.1875 45.1976 44.8085 44.0599 46.3553C43.0487 47.73 42.7812 49.4288 42.7812 50.9688H48.7812C48.7812 50.5127 48.8242 50.2108 48.8688 50.0288C48.9128 49.8492 48.9451 49.8399 48.8932 49.9104C48.8284 49.9985 48.7164 50.0963 48.584 50.1563C48.4685 50.2087 48.4363 50.1875 48.5625 50.1875V44.1875ZM42.7812 50.9688C42.7812 51.5706 42.745 52.005 42.6962 52.3008C42.6442 52.6163 42.5969 52.6552 42.6545 52.5508L47.908 55.4492C48.6323 54.1363 48.7812 52.4638 48.7812 50.9688H42.7812ZM42.6166 52.6217C42.7369 52.3892 42.8521 52.3341 42.7563 52.4025C42.6604 52.471 42.4387 52.6014 42.0236 52.7598L44.1639 58.3652C45.5016 57.8544 47.1117 56.991 47.9459 55.3783L42.6166 52.6217ZM42.0518 52.7493C41.2851 53.0332 40.4322 53.1875 39.4688 53.1875V59.1875C41.0887 59.1875 42.6524 58.9251 44.1357 58.3757L42.0518 52.7493ZM39.4688 53.1875C38.6629 53.1875 38.5952 52.9815 38.6848 53.0775C38.7384 53.1348 38.5 52.9409 38.5 51.9375H32.5C32.5 53.7675 32.9231 55.6985 34.2996 57.1725C35.7121 58.6852 37.6288 59.1875 39.4688 59.1875V53.1875ZM38.5 51.9375C38.5 50.2969 39.1322 48.9885 40.7163 47.822L37.1587 42.9905C34.1594 45.199 32.5 48.2448 32.5 51.9375H38.5ZM40.7059 47.8296C42.3716 46.6141 44.7084 45.875 47.9688 45.875V39.875C43.8125 39.875 40.1284 40.8234 37.1691 42.9829L40.7059 47.8296ZM47.9688 45.875C50.1354 45.875 51.9849 46.1715 53.5552 46.7118L55.5073 41.0382C53.2026 40.2452 50.6771 39.875 47.9688 39.875V45.875ZM53.5645 46.7149C54.9749 47.1951 56.0196 47.9656 56.8036 49.0296L61.6339 45.4704C60.0845 43.3677 58.0042 41.8882 55.498 41.0351L53.5645 46.7149ZM56.8036 49.0296C57.6056 50.118 57.9688 51.2385 57.9688 52.4688H63.9688C63.9688 49.9073 63.1653 47.5487 61.6339 45.4704L56.8036 49.0296ZM57.9688 52.4688V81H63.9688V52.4688H57.9688ZM58.0842 81.8242C58.2558 82.4248 58.5725 82.8398 58.6769 82.975C58.8284 83.171 58.9863 83.3383 59.1131 83.4651C59.3699 83.7219 59.6796 83.9908 60.002 84.2557L63.8105 79.6193C63.5496 79.405 63.4114 79.2781 63.3557 79.2224C63.3262 79.1929 63.3617 79.2249 63.4246 79.3063C63.4575 79.3488 63.5192 79.4322 63.5884 79.5509C63.6515 79.6591 63.7674 79.875 63.8533 80.1758L58.0842 81.8242ZM60.1063 84.3375C59.9264 84.2026 59.7553 84.0022 59.6439 83.757C59.539 83.5263 59.5312 83.3544 59.5312 83.3125H65.5312C65.5312 81.9357 65.0058 80.5122 63.7062 79.5375L60.1063 84.3375ZM59.5312 83.3125C59.5312 83.4533 59.5264 83.5656 59.5194 83.6525C59.5124 83.74 59.504 83.792 59.4997 83.8144C59.4952 83.8377 59.4976 83.8156 59.5176 83.7605C59.5374 83.7058 59.5818 83.5984 59.6688 83.464L64.7062 86.7235C65.4322 85.6016 65.5312 84.2565 65.5312 83.3125H59.5312ZM59.7154 83.3942C59.8552 83.1908 59.9902 83.0696 60.0567 83.0152C60.1251 82.9595 60.1603 82.9426 60.1368 82.9557C60.1155 82.9675 60.0604 82.9959 59.9612 83.037C59.8631 83.0776 59.7347 83.1254 59.5712 83.1786L61.4288 88.8839C61.9838 88.7032 62.5434 88.4824 63.0507 88.2006C63.5231 87.9381 64.1722 87.5024 64.6596 86.7933L59.7154 83.3942ZM59.5513 83.1852C59.0855 83.3405 58.3291 83.4688 57.1875 83.4688V89.4688C58.7126 89.4688 60.1645 89.3054 61.4487 88.8773L59.5513 83.1852ZM57.1875 83.4688C55.9054 83.4688 55.0758 83.2369 54.5473 82.9523L51.7027 88.2352C53.3409 89.1173 55.2196 89.4688 57.1875 89.4688V83.4688ZM54.5862 82.9737C54.3902 82.8643 53.9007 82.4632 53.4259 81.1042L47.7616 83.0833C48.4951 85.1826 49.6932 87.1148 51.6638 88.2138L54.5862 82.9737ZM48.4368 80.0087C46.6609 81.8458 45.5156 82.6927 44.9271 82.9651L47.4479 88.4099C49.1094 87.6407 50.9016 86.0917 52.7507 84.1788L48.4368 80.0087ZM44.9271 82.9651C44.1793 83.3113 43.4518 83.4688 42.7188 83.4688V89.4688C44.3607 89.4688 45.9457 89.1054 47.4479 88.4099L44.9271 82.9651ZM42.7188 83.4688C40.9922 83.4688 39.8773 82.8667 39.012 81.643L34.113 85.107C36.1644 88.0083 39.1536 89.4688 42.7188 89.4688V83.4688ZM39.0317 81.6712C38.1285 80.3622 37.4062 77.7366 37.4062 73.1875H31.4062C31.4062 78.055 32.1215 82.2211 34.0933 85.0788L39.0317 81.6712ZM37.4062 73.1875C37.4062 68.5529 38.1151 66.1731 38.8408 65.2018L34.0342 61.6107C32.0516 64.2644 31.4062 68.4055 31.4062 73.1875H37.4062ZM38.8506 65.1887C39.688 64.0549 41.6741 62.623 45.4688 61.1373L43.2812 55.5502C39.2009 57.1478 35.8953 59.0909 34.0244 61.6238L38.8506 65.1887ZM45.4488 61.145C47.9938 60.1694 50.1488 59.2618 51.8942 58.4223L49.2933 53.0152C47.7471 53.759 45.7562 54.6014 43.3012 55.5425L45.4488 61.145ZM49.3798 57.0378C46.855 58.155 44.4318 59.7775 43.5427 62.3235L49.2073 64.3015C49.2349 64.2225 49.6242 63.4908 51.8077 62.5247L49.3798 57.0378ZM43.5477 62.3093C43.1775 63.3525 42.9858 64.7446 42.8685 66.2424C42.7455 67.814 42.6875 69.772 42.6875 72.0938H48.6875C48.6875 69.853 48.7441 68.0662 48.8502 66.7107C48.9621 65.2815 49.1141 64.5641 49.2023 64.3157L43.5477 62.3093ZM42.6875 72.0938C42.6875 73.8153 42.7352 75.2819 42.8397 76.4668C42.9361 77.5591 43.102 78.7178 43.4827 79.6272L49.0173 77.3103C49.023 77.3239 48.9076 76.9722 48.8165 75.9394C48.7336 74.9993 48.6875 73.7264 48.6875 72.0938H42.6875ZM43.4926 79.6505C43.8562 80.499 44.4392 81.3313 45.3331 81.9369C46.2347 82.5477 47.2368 82.7812 48.1875 82.7812V76.7812C48.2215 76.7812 48.4424 76.7961 48.6982 76.9694C48.9462 77.1374 49.0188 77.3135 49.0074 77.287L43.4926 79.6505ZM48.1875 82.7812C50.0022 82.7812 51.599 81.93 52.5629 80.3277C53.3802 78.9691 53.5938 77.3175 53.5938 75.7812H47.5938C47.5938 76.3065 47.5535 76.6843 47.5019 76.9414C47.4495 77.2028 47.3988 77.2724 47.4215 77.2348C47.456 77.1775 47.5688 77.0276 47.7862 76.9072C47.9993 76.7891 48.1649 76.7812 48.1875 76.7812V82.7812ZM53.5938 75.7812V59.7812H47.5938V75.7812H53.5938ZM88.8125 48.1562L86.4074 49.9494L86.4125 49.9562L88.8125 48.1562ZM88.75 80.7188L91.2083 82.4382L91.2127 82.4319L88.75 80.7188ZM71.625 83.8125L69.6611 86.0803L71.625 83.8125ZM66.9375 76.8125L64.1252 77.8571L64.1285 77.8659L64.1318 77.8747L66.9375 76.8125ZM69.0625 48.4375L66.5814 46.7509L66.575 46.7605L69.0625 48.4375ZM79 45.875C81.8447 45.875 84.2697 47.0822 86.4074 49.9494L91.2176 46.3631C88.1053 42.1886 83.9886 39.875 79 39.875V45.875ZM86.4125 49.9562C88.48 52.7129 89.75 57.1628 89.75 63.7812H95.75C95.75 56.5664 94.395 50.5996 91.2125 46.3563L86.4125 49.9562ZM89.75 63.7812C89.75 70.9632 88.4517 75.8941 86.2873 79.0056L91.2127 82.4319C94.3816 77.8767 95.75 71.516 95.75 63.7812H89.75ZM86.2917 78.9993C84.0773 82.1652 81.6051 83.4375 78.7812 83.4375V89.4375C83.9157 89.4375 88.0894 86.8973 91.2083 82.4382L86.2917 78.9993ZM78.7812 83.4375C76.7299 83.4375 75.0475 82.8078 73.5889 81.5447L69.6611 86.0803C72.2442 88.3172 75.3326 89.4375 78.7812 89.4375V83.4375ZM73.5889 81.5447C72.0026 80.171 70.7006 78.2794 69.7432 75.7503L64.1318 77.8747C65.3827 81.1789 67.2057 83.954 69.6611 86.0803L73.5889 81.5447ZM69.7498 75.7679C68.844 73.3293 68.3125 69.7446 68.3125 64.8438H62.3125C62.3125 70.0679 62.8643 74.4623 64.1252 77.8571L69.7498 75.7679ZM68.3125 64.8438C68.3125 57.8764 69.5322 53.1076 71.55 50.1145L66.575 46.7605C63.5928 51.1841 62.3125 57.3527 62.3125 64.8438H68.3125ZM71.5435 50.124C73.5667 47.1478 75.9929 45.875 79 45.875V39.875C73.7988 39.875 69.5999 42.3106 66.5815 46.751L71.5435 50.124ZM84.25 50.7188C84.25 49.235 84.0519 47.6323 83.2819 46.3061C82.3672 44.7308 80.8135 43.8438 79 43.8438V49.8438C78.9338 49.8438 78.7309 49.8256 78.4908 49.6877C78.25 49.5495 78.1295 49.3815 78.0931 49.3189C78.0677 49.2752 78.1148 49.3391 78.164 49.5935C78.2123 49.8428 78.25 50.2092 78.25 50.7188H84.25ZM79 43.8438C78.0845 43.8438 77.1467 44.0744 76.2994 44.6248C75.467 45.1655 74.8916 45.9039 74.5028 46.6616C73.7698 48.0899 73.5625 49.8512 73.5625 51.5938H79.5625C79.5625 50.9222 79.6062 50.4056 79.6719 50.0214C79.7389 49.6296 79.8167 49.4483 79.841 49.4009C79.8584 49.3669 79.7908 49.5116 79.5678 49.6564C79.3298 49.811 79.103 49.8438 79 49.8438V43.8438ZM73.5625 51.5938V77.5625H79.5625V51.5938H73.5625ZM73.5625 77.5625C73.5625 79.2755 73.7488 80.9883 74.4023 82.3781C74.7474 83.1121 75.2743 83.8657 76.0755 84.4337C76.9049 85.0217 77.8472 85.2812 78.7812 85.2812V79.2812C78.9757 79.2812 79.2709 79.3442 79.5456 79.5389C79.7921 79.7137 79.8567 79.8775 79.8321 79.825C79.8039 79.7652 79.7286 79.5682 79.665 79.1624C79.6028 78.7656 79.5625 78.2391 79.5625 77.5625H73.5625ZM78.7812 85.2812C79.6906 85.2812 80.6248 85.057 81.4733 84.5164C82.3095 83.9837 82.8937 83.2516 83.291 82.4923C84.0393 81.062 84.25 79.2993 84.25 77.5625H78.25C78.25 78.2265 78.206 78.7351 78.1403 79.1116C78.0734 79.4953 77.9964 79.6692 77.9746 79.7109C77.9604 79.738 78.0303 79.5958 78.2493 79.4562C78.4806 79.3088 78.6948 79.2812 78.7812 79.2812V85.2812ZM84.25 77.5625V50.7188H78.25V77.5625H84.25Z" fill="black" mask="url(#path-1-outside-1_8_18)"/>
<mask id="path-3-outside-2_8_18" maskUnits="userSpaceOnUse" x="2" y="2" width="35" height="88" fill="black">
<rect fill="white" x="2" y="2" width="35" height="88"/>
<path d="M11.2158 5.86035H31.9448C32.756 5.86035 33.2775 5.97624 33.5093 6.20801C33.77 6.43978 33.9004 7.09163 33.9004 8.16357C33.9004 9.5542 33.7845 10.4378 33.5527 10.8145C33.3499 11.1621 32.8719 11.4518 32.1187 11.6836C31.2495 11.9443 30.7135 12.2485 30.5107 12.5962C30.3369 12.9438 30.25 13.6971 30.25 14.856V62.7021C30.25 69.3656 28.4538 75.0584 24.8613 79.7808C21.2689 84.5321 15.7209 86.9077 8.21729 86.9077C6.79769 86.9077 5.94303 86.7918 5.65332 86.5601C5.36361 86.3573 5.21875 85.8937 5.21875 85.1694V83.5181C5.21875 82.8517 5.29118 82.4172 5.43604 82.2144C5.55192 82.0116 5.95752 81.8812 6.65283 81.8232C11.578 81.3887 14.0405 77.4486 14.0405 70.0029V16.855C14.0405 14.7401 13.8377 13.3929 13.4321 12.8135C13.0555 12.2051 12.3457 11.7415 11.3027 11.4229C10.2598 11.1042 9.73828 10.4089 9.73828 9.33691C9.73828 7.54069 9.79622 6.51221 9.91211 6.25146C10.057 5.99072 10.4915 5.86035 11.2158 5.86035Z"/>
</mask>
<path d="M11.2158 5.86035H31.9448C32.756 5.86035 33.2775 5.97624 33.5093 6.20801C33.77 6.43978 33.9004 7.09163 33.9004 8.16357C33.9004 9.5542 33.7845 10.4378 33.5527 10.8145C33.3499 11.1621 32.8719 11.4518 32.1187 11.6836C31.2495 11.9443 30.7135 12.2485 30.5107 12.5962C30.3369 12.9438 30.25 13.6971 30.25 14.856V62.7021C30.25 69.3656 28.4538 75.0584 24.8613 79.7808C21.2689 84.5321 15.7209 86.9077 8.21729 86.9077C6.79769 86.9077 5.94303 86.7918 5.65332 86.5601C5.36361 86.3573 5.21875 85.8937 5.21875 85.1694V83.5181C5.21875 82.8517 5.29118 82.4172 5.43604 82.2144C5.55192 82.0116 5.95752 81.8812 6.65283 81.8232C11.578 81.3887 14.0405 77.4486 14.0405 70.0029V16.855C14.0405 14.7401 13.8377 13.3929 13.4321 12.8135C13.0555 12.2051 12.3457 11.7415 11.3027 11.4229C10.2598 11.1042 9.73828 10.4089 9.73828 9.33691C9.73828 7.54069 9.79622 6.51221 9.91211 6.25146C10.057 5.99072 10.4915 5.86035 11.2158 5.86035Z" fill="white"/>
<path d="M33.5093 6.20801L31.388 8.32933L31.4503 8.39167L31.5162 8.45024L33.5093 6.20801ZM33.5527 10.8145L30.9978 9.24216L30.9792 9.27229L30.9614 9.30284L33.5527 10.8145ZM32.1187 11.6836L32.9807 14.5571L32.9908 14.554L33.0009 14.5509L32.1187 11.6836ZM30.5107 12.5962L27.9194 11.0846L27.8707 11.1681L27.8275 11.2546L30.5107 12.5962ZM24.8613 79.7808L22.4737 77.9644L22.4684 77.9714L24.8613 79.7808ZM5.65332 86.5601L7.52741 84.2175L7.4524 84.1574L7.37371 84.1024L5.65332 86.5601ZM5.43604 82.2144L7.87724 83.9581L7.96546 83.8346L8.04076 83.7028L5.43604 82.2144ZM6.65283 81.8232L6.90197 84.8129L6.90924 84.8123L6.91651 84.8116L6.65283 81.8232ZM13.4321 12.8135L10.8813 14.3925L10.9259 14.4645L10.9744 14.5339L13.4321 12.8135ZM9.91211 6.25146L7.28964 4.79454L7.22485 4.91115L7.17067 5.03305L9.91211 6.25146ZM11.2158 8.86035H31.9448V2.86035H11.2158V8.86035ZM31.9448 8.86035C32.2318 8.86035 32.3261 8.88306 32.2935 8.87583C32.2714 8.87091 32.1702 8.8473 32.024 8.77979C31.8784 8.7126 31.6368 8.57816 31.388 8.32933L35.6306 4.08669C34.9308 3.38693 34.0961 3.13002 33.5951 3.0187C33.0411 2.89559 32.469 2.86035 31.9448 2.86035V8.86035ZM31.5162 8.45024C31.1622 8.13558 30.9992 7.81514 30.9371 7.67484C30.871 7.52554 30.8565 7.43722 30.8609 7.45908C30.8637 7.4732 30.8748 7.53685 30.8845 7.66463C30.8939 7.78953 30.9004 7.95401 30.9004 8.16357H36.9004C36.9004 7.53427 36.8644 6.88278 36.7444 6.28238C36.6505 5.8132 36.397 4.76104 35.5024 3.96578L31.5162 8.45024ZM30.9004 8.16357C30.9004 8.79199 30.8733 9.21727 30.8389 9.47916C30.822 9.60817 30.8089 9.65355 30.8129 9.63913C30.8155 9.62951 30.8268 9.58979 30.8516 9.52838C30.8757 9.4685 30.9211 9.36679 30.9978 9.24216L36.1077 12.3867C36.5732 11.6303 36.7197 10.7802 36.788 10.2594C36.8695 9.63763 36.9004 8.92579 36.9004 8.16357H30.9004ZM30.9614 9.30284C31.1911 8.90901 31.456 8.74579 31.4872 8.72689C31.5256 8.70365 31.4653 8.74584 31.2364 8.81626L33.0009 14.5509C33.8761 14.2816 35.3343 13.7142 36.1441 12.3261L30.9614 9.30284ZM31.2566 8.81011C30.6976 8.97782 30.1159 9.19633 29.584 9.49824C29.0802 9.78416 28.3931 10.2725 27.9194 11.0846L33.1021 14.1078C32.9598 14.3516 32.8063 14.5083 32.7102 14.5931C32.6144 14.6776 32.5489 14.7145 32.5456 14.7164C32.5403 14.7194 32.5702 14.7022 32.6484 14.6707C32.7252 14.6399 32.834 14.6011 32.9807 14.5571L31.2566 8.81011ZM27.8275 11.2546C27.4978 11.9139 27.3879 12.6195 27.335 13.078C27.2734 13.6116 27.25 14.2148 27.25 14.856H33.25C33.25 14.3383 33.2701 13.9854 33.2954 13.7657C33.3079 13.6578 33.3178 13.6165 33.3159 13.6244C33.3145 13.6302 33.3073 13.66 33.2911 13.708C33.2753 13.7547 33.2452 13.8355 33.194 13.9378L27.8275 11.2546ZM27.25 14.856V62.7021H33.25V14.856H27.25ZM27.25 62.7021C27.25 68.7943 25.6204 73.828 22.4737 77.9644L27.249 81.5971C31.2871 76.2889 33.25 69.9369 33.25 62.7021H27.25ZM22.4684 77.9714C19.5879 81.781 15.0504 83.9077 8.21729 83.9077V89.9077C16.3913 89.9077 22.9498 87.2831 27.2543 81.5901L22.4684 77.9714ZM8.21729 83.9077C7.5682 83.9077 7.15096 83.88 6.91469 83.848C6.79681 83.832 6.78754 83.8232 6.84857 83.8417C6.88241 83.852 6.96038 83.8775 7.06584 83.9271C7.16802 83.9752 7.33675 84.0649 7.52741 84.2175L3.77924 88.9027C4.27546 89.2996 4.79278 89.4879 5.10449 89.5826C5.45161 89.6881 5.79906 89.7516 6.10851 89.7936C6.72689 89.8774 7.44677 89.9077 8.21729 89.9077V83.9077ZM7.37371 84.1024C7.94296 84.5008 8.13826 84.9973 8.19083 85.1655C8.24165 85.3281 8.21875 85.3618 8.21875 85.1694H2.21875C2.21875 85.7013 2.26828 86.329 2.46395 86.9551C2.66138 87.5869 3.07396 88.4165 3.93293 89.0178L7.37371 84.1024ZM8.21875 85.1694V83.5181H2.21875V85.1694H8.21875ZM8.21875 83.5181C8.21875 83.2755 8.23321 83.1799 8.23225 83.1856C8.23118 83.192 8.21932 83.2641 8.1805 83.3779C8.14411 83.4847 8.05854 83.7042 7.87724 83.9581L2.99483 80.4706C2.52496 81.1285 2.37598 81.8266 2.31389 82.1992C2.24051 82.6395 2.21875 83.0943 2.21875 83.5181H8.21875ZM8.04076 83.7028C7.76348 84.188 7.40865 84.4658 7.19244 84.6039C6.97607 84.7422 6.80422 84.8016 6.74518 84.8206C6.63763 84.8551 6.65727 84.8333 6.90197 84.8129L6.4037 78.8336C5.95308 78.8712 5.42227 78.9435 4.90912 79.1084C4.51971 79.2336 3.46575 79.6157 2.83131 80.7259L8.04076 83.7028ZM6.91651 84.8116C10.2465 84.5178 12.9715 82.958 14.7376 80.1322C16.3961 77.4786 17.0405 73.9805 17.0405 70.0029H11.0405C11.0405 73.471 10.4537 75.6657 9.64961 76.9522C8.95312 78.0666 7.98429 78.6941 6.38915 78.8349L6.91651 84.8116ZM17.0405 70.0029V16.855H11.0405V70.0029H17.0405ZM17.0405 16.855C17.0405 15.72 16.9873 14.6905 16.855 13.8118C16.7371 13.0288 16.5054 11.9725 15.8898 11.0931L10.9744 14.5339C10.8434 14.3466 10.8176 14.2321 10.8376 14.2954C10.8535 14.3457 10.887 14.4734 10.9219 14.705C10.9924 15.1735 11.0405 15.875 11.0405 16.855H17.0405ZM15.9829 11.2344C15.0661 9.75339 13.5669 8.97777 12.1794 8.5538L10.4261 14.2919C10.7504 14.391 10.9149 14.4808 10.9769 14.5213C11.031 14.5566 10.9633 14.525 10.8813 14.3925L15.9829 11.2344ZM12.1794 8.5538C12.1096 8.53246 12.3208 8.58419 12.5294 8.86235C12.7416 9.14525 12.7383 9.37819 12.7383 9.33691H6.73828C6.73828 10.3676 6.99573 11.4841 7.72939 12.4624C8.4595 13.4358 9.45294 13.9946 10.4261 14.2919L12.1794 8.5538ZM12.7383 9.33691C12.7383 8.46042 12.7527 7.81883 12.777 7.38713C12.7893 7.16856 12.802 7.04502 12.8092 6.99184C12.8127 6.96575 12.8108 6.98741 12.7988 7.04098C12.7915 7.07382 12.7535 7.245 12.6535 7.46988L7.17067 5.03305C6.95245 5.52405 6.88677 6.01351 6.86296 6.19011C6.82668 6.45923 6.80315 6.75397 6.78649 7.04964C6.75287 7.64642 6.73828 8.41719 6.73828 9.33691H12.7383ZM12.5346 7.70839C12.0698 8.54503 11.3584 8.7867 11.2087 8.83161C11.0309 8.88497 10.9938 8.86035 11.2158 8.86035V2.86035C10.7136 2.86035 10.0971 2.90092 9.48464 3.08465C8.90036 3.25993 7.89929 3.69716 7.28964 4.79454L12.5346 7.70839Z" fill="black" mask="url(#path-3-outside-2_8_18)"/>
</g>
<defs>
<clipPath id="clip0_8_18">
<rect width="97" height="96" fill="white"/>
</clipPath>
</defs>
</svg>
